<svg xmlns="http://www.w3.org/2000/svg" version="1.1" xmlns:xlink="http://www.w3.org/1999/xlink" xmlns:svgjs="http://svgjs.com/svgjs" width="1440" height="760" preserveAspectRatio="none" viewBox="0 0 1440 760"><g mask="url(&quot;#SvgjsMask1528&quot;)" fill="none"><rect width="1440" height="760" x="0" y="0" fill="#0e2a47"></rect><rect width="432.32" height="432.32" clip-path="url(&quot;#SvgjsClipPath1529&quot;)" x="210.19" y="224.55" fill="url(#SvgjsPattern1530)" transform="rotate(156.46, 426.35, 440.71)"></rect><rect width="61.8" height="61.8" clip-path="url(&quot;#SvgjsClipPath1531&quot;)" x="962.89" y="513.04" fill="url(#SvgjsPattern1532)" transform="rotate(210.6, 993.79, 543.94)"></rect><path d="M1157.33 463.11a5.6 5.6 0 1 0 5.08-9.98 5.6 5.6 0 1 0-5.08 9.98zM1164.59 448.86a5.6 5.6 0 1 0 5.08-9.98 5.6 5.6 0 1 0-5.08 9.98zM1171.85 434.6a5.6 5.6 0 1 0 5.08-9.98 5.6 5.6 0 1 0-5.08 9.98zM1179.11 420.34a5.6 5.6 0 1 0 5.09-9.98 5.6 5.6 0 1 0-5.09 9.98z" stroke="rgba(128, 141, 173, 1)" stroke-width="1.18"></path><rect width="396" height="396" clip-path="url(&quot;#SvgjsClipPath1533&quot;)" x="596.02" y="-38.28" fill="url(#SvgjsPattern1534)" transform="rotate(358.97, 794.02, 159.72)"></rect><path d="M843.87 224.95a5.6 5.6 0 1 0-1.42 11.11 5.6 5.6 0 1 0 1.42-11.11zM841.84 240.82a5.6 5.6 0 1 0-1.41 11.11 5.6 5.6 0 1 0 1.41-11.11zM839.82 256.69a5.6 5.6 0 1 0-1.42 11.11 5.6 5.6 0 1 0 1.42-11.11zM837.79 272.57a5.6 5.6 0 1 0-1.41 11.11 5.6 5.6 0 1 0 1.41-11.11z" stroke="rgba(128, 141, 173, 1)" stroke-width="1.98" stroke-dasharray="2, 2"></path><rect width="264" height="264" clip-path="url(&quot;#SvgjsClipPath1535&quot;)" x="229.86" y="78.08" fill="url(#SvgjsPattern1536)" transform="rotate(146.32, 361.86, 210.08)"></rect><path d="M972.14 145.93a5.6 5.6 0 1 0 10.78-3.05 5.6 5.6 0 1 0-10.78 3.05zM987.53 141.57a5.6 5.6 0 1 0 10.78-3.05 5.6 5.6 0 1 0-10.78 3.05zM1002.93 137.21a5.6 5.6 0 1 0 10.78-3.05 5.6 5.6 0 1 0-10.78 3.05zM1018.33 132.86a5.6 5.6 0 1 0 10.77-3.05 5.6 5.6 0 1 0-10.77 3.05zM945.7 170.04a5.6 5.6 0 1 0 10.78-3.05 5.6 5.6 0 1 0-10.78 3.05zM961.1 165.68a5.6 5.6 0 1 0 10.78-3.05 5.6 5.6 0 1 0-10.78 3.05zM976.5 161.32a5.6 5.6 0 1 0 10.77-3.05 5.6 5.6 0 1 0-10.77 3.05zM991.89 156.97a5.6 5.6 0 1 0 10.78-3.05 5.6 5.6 0 1 0-10.78 3.05z" fill="rgba(128, 141, 173, 1)"></path><circle r="77.48593142879007" cx="253.75" cy="117.2" stroke="rgba(128, 141, 173, 1)" stroke-width="1.7" stroke-dasharray="4, 4"></circle><rect width="392.40000000000003" height="392.40000000000003" clip-path="url(&quot;#SvgjsClipPath1537&quot;)" x="-53.25" y="-14.78" fill="url(#SvgjsPattern1538)" transform="rotate(64.02, 142.95, 181.42)"></rect></g><defs><mask id="SvgjsMask1528"><rect width="1440" height="760" fill="#ffffff"></rect></mask><pattern x="0" y="0" width="432.32" height="7.72" patternUnits="userSpaceOnUse" id="SvgjsPattern1530"><rect width="432.32" height="3.86" x="0" y="0" fill="rgba(128, 141, 173, 1)"></rect><rect width="432.32" height="3.86" x="0" y="3.86" fill="rgba(0, 0, 0, 0)"></rect></pattern><clipPath id="SvgjsClipPath1529"><circle r="108.08" cx="426.35" cy="440.71"></circle></clipPath><pattern x="0" y="0" width="61.8" height="6.18" patternUnits="userSpaceOnUse" id="SvgjsPattern1532"><rect width="61.8" height="3.09" x="0" y="0" fill="rgba(235, 74, 74, 1)"></rect><rect width="61.8" height="3.09" x="0" y="3.09" fill="rgba(0, 0, 0, 0)"></rect></pattern><clipPath id="SvgjsClipPath1531"><circle r="15.45" cx="993.79" cy="543.94"></circle></clipPath><pattern x="0" y="0" width="6" height="6" patternUnits="userSpaceOnUse" id="SvgjsPattern1534"><path d="M3 1L3 5M1 3L5 3" stroke="rgba(235, 74, 74, 1)" fill="none" stroke-width="1.02"></path></pattern><clipPath id="SvgjsClipPath1533"><circle r="99" cx="794.02" cy="159.72"></circle></clipPath><pattern x="0" y="0" width="264" height="6" patternUnits="userSpaceOnUse" id="SvgjsPattern1536"><rect width="264" height="3" x="0" y="0" fill="rgba(128, 141, 173, 1)"></rect><rect width="264" height="3" x="0" y="3" fill="rgba(0, 0, 0, 0)"></rect></pattern><clipPath id="SvgjsClipPath1535"><circle r="66" cx="361.86" cy="210.08"></circle></clipPath><pattern x="0" y="0" width="10.9" height="10.9" patternUnits="userSpaceOnUse" id="SvgjsPattern1538"><path d="M0 10.9L5.45 0L10.9 10.9" stroke="rgba(235, 74, 74, 1)" fill="none"></path></pattern><clipPath id="SvgjsClipPath1537"><circle r="98.10000000000001" cx="142.95" cy="181.42"></circle></clipPath></defs></svg>