<svg xmlns="http://www.w3.org/2000/svg" version="1.1" xmlns:xlink="http://www.w3.org/1999/xlink" xmlns:svgjs="http://svgjs.com/svgjs" width="1440" height="760" preserveAspectRatio="none" viewBox="0 0 1440 760"><g mask="url(&quot;#SvgjsMask1800&quot;)" fill="none"><rect width="1440" height="760" x="0" y="0" fill="rgba(14, 22, 48, 1)"></rect><path d="M423.82 279.71a5.6 5.6 0 1 0 10.37 4.24 5.6 5.6 0 1 0-10.37-4.24zM438.63 285.76a5.6 5.6 0 1 0 10.37 4.24 5.6 5.6 0 1 0-10.37-4.24zM453.44 291.81a5.6 5.6 0 1 0 10.37 4.24 5.6 5.6 0 1 0-10.37-4.24zM468.25 297.87a5.6 5.6 0 1 0 10.37 4.23 5.6 5.6 0 1 0-10.37-4.23zM388.14 282.41a5.6 5.6 0 1 0 10.37 4.24 5.6 5.6 0 1 0-10.37-4.24zM402.95 288.47a5.6 5.6 0 1 0 10.37 4.23 5.6 5.6 0 1 0-10.37-4.23zM417.76 294.52a5.6 5.6 0 1 0 10.37 4.24 5.6 5.6 0 1 0-10.37-4.24zM432.58 300.57a5.6 5.6 0 1 0 10.36 4.24 5.6 5.6 0 1 0-10.36-4.24zM352.47 285.12a5.6 5.6 0 1 0 10.37 4.23 5.6 5.6 0 1 0-10.37-4.23zM367.28 291.17a5.6 5.6 0 1 0 10.37 4.24 5.6 5.6 0 1 0-10.37-4.24zM382.09 297.22a5.6 5.6 0 1 0 10.37 4.24 5.6 5.6 0 1 0-10.37-4.24zM396.9 303.28a5.6 5.6 0 1 0 10.37 4.23 5.6 5.6 0 1 0-10.37-4.23z" stroke="rgba(235, 74, 74, 1)" stroke-width="2.87" stroke-dasharray="3, 3"></path><path d="M615.12 345.79L612.11 333.34 623.59 327.67 620.57 315.22 632.05 309.54 629.03 297.1 640.51 291.42M622.37 349.17L619.35 336.73 630.83 331.05 627.82 318.61 639.3 312.93 636.28 300.48 647.76 294.81M629.62 352.56L626.6 340.11 638.08 334.44 635.07 321.99 646.54 316.31 643.53 303.87 655.01 298.19" stroke="rgba(235, 74, 74, 1)" stroke-width="2.04" stroke-dasharray="3, 2"></path><path d="M650.39 465.82L651.88 453.11 664.62 451.77 666.11 439.05 678.84 437.71 680.34 424.99 693.07 423.66M656.01 471.52L657.5 458.8 670.24 457.46 671.73 444.74 684.47 443.41 685.96 430.69 698.69 429.35M661.63 477.21L663.12 464.49 675.86 463.15 677.35 450.43 690.09 449.1 691.58 436.38 704.32 435.04" stroke="rgba(128, 141, 173, 1)" stroke-width="1.51" stroke-dasharray="4, 4"></path><rect width="297" height="297" clip-path="url(&quot;#SvgjsClipPath1801&quot;)" x="401.22" y="194.16" fill="url(#SvgjsPattern1802)" transform="rotate(218.89, 549.72, 342.66)"></rect><path d="M48.22 130.76L49.21 143.52 36.97 147.29 37.97 160.06 25.73 163.83 26.72 176.6 14.48 180.37M41.6 126.26L42.59 139.03 30.36 142.8 31.35 155.56 19.11 159.34 20.11 172.1 7.87 175.88M34.98 121.76L35.98 134.53 23.74 138.3 24.73 151.07 12.5 154.84 13.49 167.61 1.25 171.38" stroke="rgba(128, 141, 173, 1)" stroke-width="2.74" stroke-dasharray="3, 2"></path><rect width="84" height="84" clip-path="url(&quot;#SvgjsClipPath1803&quot;)" x="1050.76" y="693.17" fill="url(#SvgjsPattern1804)" transform="rotate(83.79, 1092.76, 735.17)"></rect><path d="M652.49 725.53 L444.25 892.1600000000001L376.82080203996657 637.2958020399666z" fill="rgba(235, 74, 74, 1)"></path><path d="M225.89999999999998 275.52 L168.04 184.63L142.4084791255779 284.63652087442205z" stroke="rgba(128, 141, 173, 1)" stroke-width="2.65"></path><rect width="240" height="240" clip-path="url(&quot;#SvgjsClipPath1805&quot;)" x="1288.69" y="474.54" fill="url(#SvgjsPattern1806)" transform="rotate(274.67, 1408.69, 594.54)"></rect></g><defs><mask id="SvgjsMask1800"><rect width="1440" height="760" fill="#ffffff"></rect></mask><pattern x="0" y="0" width="297" height="13.5" patternUnits="userSpaceOnUse" id="SvgjsPattern1802"><rect width="297" height="6.75" x="0" y="0" fill="rgba(235, 74, 74, 1)"></rect><rect width="297" height="6.75" x="0" y="6.75" fill="rgba(0, 0, 0, 0)"></rect></pattern><clipPath id="SvgjsClipPath1801"><circle r="74.25" cx="549.72" cy="342.66"></circle></clipPath><pattern x="0" y="0" width="6" height="6" patternUnits="userSpaceOnUse" id="SvgjsPattern1804"><path d="M3 1L3 5M1 3L5 3" stroke="rgba(235, 74, 74, 1)" fill="none" stroke-width="1.82"></path></pattern><clipPath id="SvgjsClipPath1803"><circle r="21" cx="1092.76" cy="735.17"></circle></clipPath><pattern x="0" y="0" width="6" height="6" patternUnits="userSpaceOnUse" id="SvgjsPattern1806"><path d="M3 1L3 5M1 3L5 3" stroke="rgba(235, 74, 74, 1)" fill="none" stroke-width="1"></path></pattern><clipPath id="SvgjsClipPath1805"><circle r="60" cx="1408.69" cy="594.54"></circle></clipPath></defs></svg>