<svg xmlns="http://www.w3.org/2000/svg" version="1.1" xmlns:xlink="http://www.w3.org/1999/xlink" xmlns:svgjs="http://svgjs.com/svgjs" width="350" height="120" preserveAspectRatio="none" viewBox="0 0 350 120"><g mask="url(&quot;#SvgjsMask1245&quot;)" fill="none"><g transform="translate(3.5, 6)" stroke-linecap="round" stroke="url(#SvgjsLinearGradient1246)"><path d="M7 44.9 L7 75.1" stroke-width="6"></path><path d="M15 3.95 L15 9.95" stroke-width="6"></path><path d="M15 18.95 L15 116.05" stroke-width="6"></path><path d="M23 30.24 L23 48.239999999999995" stroke-width="6"></path><path d="M23 57.239999999999995 L23 89.75" stroke-width="6"></path><path d="M31 16.15 L31 70.15" stroke-width="6"></path><path d="M31 79.15 L31 85.15" stroke-width="6"></path><path d="M31 94.15 L31 103.85" stroke-width="6"></path><path d="M39 17.240000000000002 L39 102.76" stroke-width="6"></path><path d="M47 35.25 L47 41.25" stroke-width="6"></path><path d="M47 50.25 L47 84.75" stroke-width="6"></path><path d="M55 26.72 L55 93.28" stroke-width="6"></path><path d="M63 34.66 L63 58.66" stroke-width="6"></path><path d="M63 67.66 L63 85.34" stroke-width="6"></path><path d="M71 42.1 L71 54.1" stroke-width="6"></path><path d="M71 63.1 L71 77.9" stroke-width="6"></path><path d="M79 9 L79 57" stroke-width="6"></path><path d="M79 66 L79 90" stroke-width="6"></path><path d="M79 99 L79 111" stroke-width="6"></path><path d="M87 18.75 L87 66.75" stroke-width="6"></path><path d="M87 75.75 L87 81.75" stroke-width="6"></path><path d="M87 90.75 L87 101.25" stroke-width="6"></path><path d="M95 30.21 L95 48.21" stroke-width="6"></path><path d="M95 57.21 L95 69.21000000000001" stroke-width="6"></path><path d="M95 78.21000000000001 L95 89.79" stroke-width="6"></path><path d="M103 17.59 L103 41.59" stroke-width="6"></path><path d="M103 50.59 L103 68.59" stroke-width="6"></path><path d="M103 77.59 L103 102.41" stroke-width="6"></path><path d="M111 45.67 L111 74.33" stroke-width="6"></path><path d="M119 10.95 L119 82.95" stroke-width="6"></path><path d="M119 91.95 L119 109.06" stroke-width="6"></path><path d="M127 14.09 L127 105.91" stroke-width="6"></path><path d="M135 21.47 L135 57.47" stroke-width="6"></path><path d="M135 66.47 L135 98.53" stroke-width="6"></path><path d="M143 48.43 L143 71.57" stroke-width="6"></path><path d="M151 30.56 L151 42.56" stroke-width="6"></path><path d="M151 51.56 L151 89.44" stroke-width="6"></path><path d="M159 39.88 L159 51.88" stroke-width="6"></path><path d="M159 60.88 L159 80.13" stroke-width="6"></path><path d="M167 35.67 L167 47.67" stroke-width="6"></path><path d="M167 56.67 L167 62.67" stroke-width="6"></path><path d="M167 71.67 L167 84.33" stroke-width="6"></path><path d="M175 45.7 L175 51.7" stroke-width="6"></path><path d="M175 60.7 L175 74.31" stroke-width="6"></path><path d="M183 17.740000000000002 L183 102.26" stroke-width="6"></path><path d="M191 15.61 L191 45.61" stroke-width="6"></path><path d="M191 54.61 L191 72.61" stroke-width="6"></path><path d="M191 81.61 L191 104.39" stroke-width="6"></path><path d="M199 28.92 L199 40.92" stroke-width="6"></path><path d="M199 49.92 L199 67.92" stroke-width="6"></path><path d="M199 76.92 L199 91.08" stroke-width="6"></path><path d="M207 15.38 L207 27.380000000000003" stroke-width="6"></path><path d="M207 36.38 L207 104.62" stroke-width="6"></path><path d="M215 12.88 L215 30.880000000000003" stroke-width="6"></path><path d="M215 39.88 L215 81.88" stroke-width="6"></path><path d="M215 90.88 L215 107.12" stroke-width="6"></path><path d="M223 30.96 L223 42.96" stroke-width="6"></path><path d="M223 51.96 L223 63.96" stroke-width="6"></path><path d="M223 72.96000000000001 L223 89.04" stroke-width="6"></path><path d="M231 19.01 L231 31.01" stroke-width="6"></path><path d="M231 40.010000000000005 L231 64.01" stroke-width="6"></path><path d="M231 73.01 L231 100.99" stroke-width="6"></path><path d="M239 20.52 L239 56.519999999999996" stroke-width="6"></path><path d="M239 65.52 L239 99.48" stroke-width="6"></path><path d="M247 10.84 L247 34.84" stroke-width="6"></path><path d="M247 43.84 L247 67.84" stroke-width="6"></path><path d="M247 76.84 L247 109.16" stroke-width="6"></path><path d="M255 48.78 L255 71.22" stroke-width="6"></path><path d="M263 51.48 L263 68.53" stroke-width="6"></path><path d="M271 12.35 L271 42.35" stroke-width="6"></path><path d="M271 51.35 L271 107.65" stroke-width="6"></path><path d="M279 53.22 L279 66.78" stroke-width="6"></path><path d="M287 6.38 L287 66.38" stroke-width="6"></path><path d="M287 75.38 L287 81.38" stroke-width="6"></path><path d="M287 90.38 L287 113.62" stroke-width="6"></path><path d="M295 42.59 L295 54.59" stroke-width="6"></path><path d="M295 63.59 L295 77.41" stroke-width="6"></path><path d="M303 20.36 L303 26.36" stroke-width="6"></path><path d="M303 35.36 L303 99.64" stroke-width="6"></path><path d="M311 56.16 L311 63.83" stroke-width="6"></path><path d="M319 5.609999999999999 L319 77.61" stroke-width="6"></path><path d="M319 86.61 L319 92.61" stroke-width="6"></path><path d="M319 101.61 L319 114.39" stroke-width="6"></path><path d="M327 40.34 L327 46.34" stroke-width="6"></path><path d="M327 55.34 L327 61.34" stroke-width="6"></path><path d="M327 70.34 L327 79.66" stroke-width="6"></path><path d="M335 42.14 L335 77.86" stroke-width="6"></path><path d="M343 26.86 L343 38.86" stroke-width="6"></path><path d="M343 47.86 L343 93.14" stroke-width="6"></path></g></g><defs><mask id="SvgjsMask1245"><rect width="350" height="120" fill="#ffffff"></rect></mask><linearGradient x1="1.75" y1="60" x2="348.25" y2="60" gradientUnits="userSpaceOnUse" id="SvgjsLinearGradient1246"><stop stop-color="rgba(36, 34, 35, 0.93)" offset="0.39"></stop><stop stop-color="rgba(221, 17, 51, 0.93)" offset="1"></stop></linearGradient></defs></svg>