<svg xmlns="http://www.w3.org/2000/svg" version="1.1" xmlns:xlink="http://www.w3.org/1999/xlink" xmlns:svgjs="http://svgjs.com/svgjs" width="350" height="120" preserveAspectRatio="none" viewBox="0 0 350 120"><g mask="url(&quot;#SvgjsMask1157&quot;)" fill="none"><g transform="translate(3.5, 6)" stroke-linecap="round" stroke="url(#SvgjsLinearGradient1158)"><path d="M21 33.489999999999995 L21 86.51" stroke-width="16.5"></path><path d="M43 28.57 L43 91.43" stroke-width="16.5"></path><path d="M65 20.880000000000003 L65 37.38" stroke-width="16.5"></path><path d="M65 62.13 L65 99.12" stroke-width="16.5"></path><path d="M87 23.119999999999997 L87 39.62" stroke-width="16.5"></path><path d="M87 64.37 L87 96.88" stroke-width="16.5"></path><path d="M109 15.870000000000001 L109 48.87" stroke-width="16.5"></path><path d="M109 73.62 L109 104.13" stroke-width="16.5"></path><path d="M131 58.31 L131 61.69" stroke-width="16.5"></path><path d="M153 50.23 L153 69.77" stroke-width="16.5"></path><path d="M175 59.14 L175 60.86" stroke-width="16.5"></path><path d="M197 28.59 L197 91.41" stroke-width="16.5"></path><path d="M219 59.19 L219 60.81" stroke-width="16.5"></path><path d="M241 16.2 L241 32.7" stroke-width="16.5"></path><path d="M241 57.45 L241 103.8" stroke-width="16.5"></path><path d="M263 23.619999999999997 L263 96.38" stroke-width="16.5"></path><path d="M285 56.53 L285 63.47" stroke-width="16.5"></path><path d="M307 53.19 L307 66.81" stroke-width="16.5"></path><path d="M329 20.22 L329 36.72" stroke-width="16.5"></path><path d="M329 61.47 L329 99.78" stroke-width="16.5"></path></g></g><defs><mask id="SvgjsMask1157"><rect width="350" height="120" fill="#ffffff"></rect></mask><linearGradient x1="1.75" y1="60" x2="348.25" y2="60" gradientUnits="userSpaceOnUse" id="SvgjsLinearGradient1158"><stop stop-color="#3a7cc3" offset="0"></stop><stop stop-color="#dd1133" offset="1"></stop></linearGradient></defs></svg>